<svg width="40" height="40" viewBox="0 0 40 40" fill="none" xmlns="http://www.w3.org/2000/svg">
<g clip-path="url(#clip0_9426_18)">
<circle cx="20" cy="20" r="20" transform="rotate(-180 20 20)" fill="black" fill-opacity="0.5"/>
<path d="M21.6284 12.7827C22.2142 12.1969 23.1647 12.1969 23.7505 12.7827L30.9673 20.0005L23.7505 27.2173C23.1647 27.803 22.2142 27.803 21.6284 27.2173C21.043 26.6315 21.0429 25.6819 21.6284 25.0962L25.2251 21.5005L10.5327 21.5005C9.70444 21.5005 9.03297 20.8287 9.03271 20.0005C9.03271 19.1721 9.70429 18.5005 10.5327 18.5005L25.2251 18.5005L21.6284 14.9038C21.043 14.3181 21.043 13.3685 21.6284 12.7827Z" fill="white"/>
</g>
<defs>
<clipPath id="clip0_9426_18">
<rect width="40" height="40" fill="white"/>
</clipPath>
</defs>
</svg>
