<svg width="186" height="180" viewBox="0 0 186 180" fill="none" xmlns="http://www.w3.org/2000/svg">
<path d="M93.1959 161.315C94.7183 161.422 96.0297 161.784 97.1292 162.401C98.2284 163.024 99.0587 163.851 99.619 164.882C100.179 165.918 100.411 167.104 100.317 168.44L99.4994 180L95.1681 179.693L95.9591 168.51C96.0028 167.892 95.9076 167.331 95.6737 166.828C95.4337 166.324 95.0778 165.918 94.6072 165.609C94.1367 165.3 93.5778 165.123 92.9305 165.077C92.283 165.031 91.7072 165.129 91.2036 165.368C90.6942 165.608 90.2847 165.96 89.9763 166.425C89.668 166.89 89.4923 167.431 89.4485 168.049L88.6575 179.233L84.3341 178.927L85.1524 167.368C85.2469 166.032 85.6465 164.89 86.3526 163.943C87.0581 163.002 87.9993 162.301 89.1751 161.839C90.3506 161.383 91.6909 161.208 93.1959 161.315Z" fill="black"/>
<path d="M77.3883 160.093L71.8015 177.168L67.6742 175.818L73.261 158.742L77.3883 160.093Z" fill="black"/>
<path d="M116.255 158.152C117.911 157.711 119.462 157.682 120.908 158.065C122.354 158.448 123.604 159.211 124.658 160.352C125.714 161.498 126.487 162.987 126.975 164.818C127.355 166.242 127.48 167.561 127.35 168.776C127.222 169.997 126.881 171.093 126.329 172.063C125.771 173.035 125.044 173.851 124.15 174.514C123.249 175.177 122.219 175.664 121.061 175.973C120.055 176.241 119.081 176.347 118.14 176.289C117.193 176.233 116.316 176.03 115.509 175.683C114.696 175.336 113.985 174.857 113.374 174.245C112.763 173.634 112.291 172.909 111.959 172.072L116.206 170.939C116.397 171.27 116.621 171.546 116.88 171.768C117.14 171.995 117.432 172.168 117.755 172.288C118.077 172.408 118.426 172.468 118.802 172.471C119.179 172.479 119.577 172.428 119.995 172.316C120.837 172.092 121.512 171.694 122.02 171.123C122.521 170.554 122.835 169.835 122.961 168.966C123.087 168.103 123.004 167.117 122.708 166.01C122.411 164.897 121.997 163.99 121.466 163.291C120.934 162.591 120.308 162.116 119.588 161.866C118.868 161.617 118.072 161.608 117.202 161.84C116.433 162.045 115.817 162.343 115.352 162.733C114.883 163.13 114.572 163.598 114.418 164.135C114.273 164.645 114.273 165.195 114.416 165.787L117.856 164.871L118.671 167.931L111.187 169.926L110.575 167.629C110.16 166.075 110.136 164.656 110.502 163.372C110.862 162.09 111.539 160.998 112.534 160.097C113.523 159.198 114.763 158.55 116.255 158.152Z" fill="black"/>
<path fill-rule="evenodd" clip-rule="evenodd" d="M51.0303 151.561C52.356 150.812 53.7722 150.492 55.2782 150.601C56.781 150.715 58.3014 151.264 59.8387 152.247L65.4336 155.824L55.7546 170.96L50.1678 167.388C48.6257 166.402 47.4913 165.25 46.7652 163.932C46.0311 162.616 45.7229 161.197 45.8415 159.676C45.9569 158.16 46.5173 156.617 47.5222 155.045C48.5302 153.469 49.6997 152.307 51.0303 151.561ZM55.5596 154.509C54.7825 154.422 54.0355 154.607 53.3191 155.065C52.5947 155.525 51.8842 156.3 51.1881 157.388C50.4918 158.477 50.0901 159.442 49.9829 160.283C49.8725 161.129 50.0239 161.885 50.4372 162.552C50.8426 163.221 51.479 163.833 52.346 164.387L54.0911 165.502L59.7804 156.604L57.9841 155.455C57.1368 154.914 56.3286 154.599 55.5596 154.509Z" fill="black"/>
<path d="M163.942 148.808L161.185 151.331L148.981 148.465L148.87 148.567L155.857 156.204L152.66 159.129L140.533 145.873L143.252 143.386L155.526 146.211L155.61 146.134L148.611 138.484L151.815 135.553L163.942 148.808Z" fill="black"/>
<path d="M89.544 28.6056C95.1964 25.7506 101.936 26.086 107.277 29.4882C109.511 30.9114 112.131 31.6067 114.777 31.4775C121.102 31.1683 127.123 34.2154 130.618 39.4958C132.08 41.7049 134.192 43.4059 136.662 44.364C142.566 46.6542 146.825 51.8867 147.87 58.132C148.307 60.7447 149.545 63.1579 151.411 65.0377C155.873 69.531 157.636 76.0434 156.051 82.1741C155.388 84.7387 155.538 87.4467 156.478 89.9231C158.727 95.843 157.688 102.511 153.746 107.467C152.098 109.54 151.132 112.074 150.984 114.719C150.63 121.042 146.971 126.71 141.354 129.634C139.005 130.857 137.092 132.779 135.881 135.135C132.986 140.768 127.337 144.458 121.016 144.845C118.372 145.006 115.844 145.984 113.779 147.644C108.844 151.612 102.183 152.685 96.2517 150.468C93.7702 149.54 91.0609 149.405 88.4996 150.082C82.3773 151.699 75.8558 149.969 71.3391 145.531C69.4496 143.675 67.0302 142.451 64.4153 142.027C58.1643 141.014 52.909 136.781 50.588 130.89C50.0673 129.567 50.7173 128.073 52.0395 127.552C53.3617 127.031 54.8558 127.682 55.3767 129.004C57.0321 133.206 60.7797 136.223 65.2376 136.946C68.904 137.54 72.2964 139.257 74.9457 141.86C78.1671 145.026 82.8193 146.26 87.1859 145.106C90.7769 144.157 94.5739 144.346 98.053 145.647C102.283 147.228 107.035 146.463 110.554 143.633C113.449 141.306 116.996 139.934 120.703 139.707C125.211 139.431 129.24 136.8 131.305 132.783C133.002 129.48 135.684 126.785 138.978 125.069C142.984 122.984 145.594 118.94 145.847 114.431C146.054 110.722 147.408 107.169 149.72 104.262C152.531 100.727 153.27 95.9724 151.667 91.7505C150.348 88.2785 150.14 84.4823 151.07 80.8865C152.2 76.514 150.942 71.8691 147.759 68.6644C145.142 66.0287 143.408 62.6448 142.795 58.9814C142.049 54.5273 139.011 50.7961 134.801 49.1627C131.338 47.8194 128.376 45.4339 126.326 42.3365C123.833 38.5707 119.539 36.3975 115.029 36.618C111.319 36.7993 107.644 35.8251 104.511 33.8296C100.702 31.4031 95.8963 31.1633 91.865 33.1993C88.5495 34.874 84.7952 35.4792 81.1216 34.9303C76.655 34.263 72.1671 35.9993 69.3126 39.4989C66.965 42.377 63.7817 44.4558 60.2026 45.4486C55.8506 46.6556 52.4569 50.0677 51.2725 54.4259C50.2986 58.0102 48.2359 61.2044 45.37 63.5671C41.8853 66.44 40.173 70.938 40.8638 75.4012C41.4317 79.0715 40.8462 82.8277 39.1891 86.1516C37.1741 90.1935 37.4384 94.9985 39.8847 98.7949C40.6545 99.9894 40.3101 101.581 39.1158 102.351C37.9213 103.121 36.3293 102.778 35.5594 101.583C32.1291 96.2603 31.7579 89.5221 34.5834 83.8548C35.7651 81.4841 36.1817 78.8049 35.7765 76.1872C34.8081 69.9293 37.21 63.6236 42.0961 59.5956C44.1402 57.9105 45.6113 55.6323 46.3059 53.0759C47.9664 46.9653 52.7247 42.1815 58.8265 40.489C61.3792 39.7809 63.6497 38.2979 65.324 36.2451C69.3264 31.3381 75.6198 28.9044 81.8825 29.84C84.5024 30.2314 87.1796 29.7999 89.544 28.6056Z" fill="black"/>
<path fill-rule="evenodd" clip-rule="evenodd" d="M32.9288 132.803C34.4785 132.548 35.9359 132.709 37.3004 133.286C38.6613 133.858 39.84 134.776 40.8366 136.038C41.8368 137.305 42.4548 138.668 42.6912 140.128C42.9276 141.588 42.7443 143.041 42.1414 144.486C41.5303 145.929 40.4514 147.262 38.9047 148.483C37.3533 149.708 35.8048 150.451 34.2587 150.711C32.7089 150.966 31.2531 150.807 29.8922 150.234C28.5314 149.662 27.3511 148.743 26.3509 147.476C25.3543 146.214 24.7353 144.855 24.4943 143.398C24.2497 141.937 24.4307 140.482 25.0381 139.034C25.6456 137.585 26.7255 136.249 28.2768 135.024C29.8282 133.799 31.379 133.058 32.9288 132.803ZM35.9846 137.041C35.2745 136.812 34.501 136.819 33.6646 137.062C32.8248 137.301 31.9459 137.782 31.028 138.507C30.11 139.232 29.4374 139.976 29.0106 140.737C28.5802 141.495 28.3934 142.245 28.4517 142.989C28.5064 143.728 28.802 144.438 29.3383 145.117C29.8711 145.792 30.4929 146.244 31.2029 146.473C31.9129 146.702 32.688 146.697 33.5279 146.459C34.3643 146.216 35.2415 145.731 36.1595 145.006C37.0773 144.282 37.7515 143.541 38.1819 142.784C38.6087 142.022 38.793 141.269 38.7348 140.525C38.6765 139.781 38.381 139.072 37.8482 138.397C37.3119 137.718 36.6909 137.266 35.9846 137.041Z" fill="black"/>
<path d="M174.078 135.004L171.692 138.631L156.681 128.761L159.067 125.133L174.078 135.004Z" fill="black"/>
<path fill-rule="evenodd" clip-rule="evenodd" d="M63.7288 60.455C75.7506 51.7614 89.8567 50.742 95.2344 58.1783L95.4777 58.5311C100.151 65.5842 95.6331 77.3466 85.2117 85.841C85.1225 86.0075 85.016 86.1679 84.887 86.3165C84.3529 86.9311 83.4131 87.699 82.3007 88.5239C81.1244 89.3961 79.5673 90.4673 77.6476 91.7023C73.8049 94.1743 68.4502 97.3415 61.6702 100.942C53.7953 105.124 46.9986 108.639 40.5652 113.02C39.0653 114.042 38 115.153 37.4914 116.151C37.0733 116.972 37.1007 117.795 37.4492 118.468C37.7898 119.127 38.6042 119.889 40.1742 120.33C44.2516 121.476 49.2883 120.405 54.7545 118.121C58.8157 116.424 62.8024 114.199 66.4579 112.11L69.9941 110.089C71.0685 109.463 72.2151 108.881 73.26 108.34C74.3458 107.779 75.3489 107.249 76.2665 106.675C78.1501 105.496 79.6015 104.186 83.1902 101.391C84.3113 100.518 85.9286 100.719 86.8019 101.84C87.6751 102.961 87.4735 104.578 86.3526 105.451C83.5446 107.638 81.7379 109.183 79.9003 110.441C80.7257 110.336 81.5869 110.632 82.173 111.307C82.8462 112.084 83.9748 113.153 85.5032 114.248C88.0536 116.075 91.2492 116.212 93.7236 115.114C96.1085 114.056 97.6524 111.963 97.475 109.175C97.2859 108.111 96.9434 107.243 96.2436 106.311C95.3905 105.174 95.62 103.561 96.7563 102.708C97.8928 101.855 99.5066 102.084 100.36 103.221C101.554 104.811 102.187 106.394 102.512 108.1L102.573 108.443L102.591 108.551L102.599 108.661C103.023 114.009 99.9018 118.003 95.8104 119.818C91.7776 121.607 86.6341 121.388 82.5067 118.431C80.6893 117.129 79.2517 115.793 78.2849 114.679C77.515 113.791 77.4622 112.527 78.0738 111.589C77.2482 112.065 76.4138 112.503 75.6242 112.912C74.5083 113.489 73.4985 114.002 72.5594 114.551L72.5433 114.56L72.5262 114.569C68.1821 117.025 62.5197 120.454 56.7387 122.869C51.0087 125.263 44.5969 126.918 38.782 125.285C36.2007 124.559 34.0279 123.057 32.8776 120.834C31.7354 118.626 31.7666 116.052 32.9057 113.815C33.9545 111.757 35.7808 110.052 37.6683 108.766C44.3891 104.19 51.4792 100.527 59.2567 96.3965C60.3944 95.7924 61.4884 95.1981 62.5417 94.6213C58.0646 94.4785 54.2842 92.959 51.957 90.0035L51.6987 89.6618C46.321 82.2255 51.7071 69.1488 63.7288 60.455ZM91.0639 61.1938C89.8052 59.4536 87.0397 58.0621 82.3439 58.4014C78.5833 58.6732 74.1344 60.0675 69.7077 62.6835C73.4599 61.6434 77.0271 62.3435 78.8177 64.8195C81.415 68.4116 79.2907 74.3823 74.0732 78.1554C68.8556 81.9285 62.5198 82.0751 59.9222 78.4831C58.5607 76.6001 58.4982 74.0641 59.497 71.5332C57.9347 73.5315 56.7438 75.557 55.9476 77.4899C54.1545 81.8434 54.6107 84.9058 55.8692 86.6462C57.128 88.3864 59.8935 89.778 64.5892 89.4386C69.1919 89.1058 74.8258 87.092 80.1877 83.2145C85.5499 79.3367 89.2279 74.617 90.9855 70.3501C92.7786 65.9967 92.3224 62.9342 91.0639 61.1938Z" fill="black"/>
<path d="M184.891 103.51L183.314 108.652L171.341 109.75L171.28 109.951L180.576 117.575L178.999 122.716L161.823 117.447L163.063 113.404L173.614 116.641L173.657 116.498L164.482 109.169L165.274 106.586L177.04 105.68L177.084 105.539L166.474 102.284L167.714 98.241L184.891 103.51Z" fill="black"/>
<path fill-rule="evenodd" clip-rule="evenodd" d="M18.7054 99.7418C19.6521 99.5559 20.5457 99.6306 21.3863 99.9659C22.2212 100.303 22.9439 100.885 23.5535 101.713C24.1573 102.542 24.5873 103.608 24.8431 104.91L26.3961 112.821L8.76714 116.284L7.32369 108.932C7.06452 107.612 7.03392 106.471 7.23221 105.509C7.42941 104.54 7.8198 103.766 8.40326 103.187C8.98565 102.601 9.71886 102.222 10.6026 102.049C11.274 101.917 11.9012 101.94 12.4843 102.117C13.0617 102.296 13.571 102.598 14.0122 103.024C14.4535 103.45 14.8066 103.973 15.0717 104.595L15.2446 104.561C15.1393 103.842 15.2018 103.147 15.4335 102.476C15.6641 101.799 16.0564 101.216 16.6096 100.726C17.1573 100.237 17.8561 99.9086 18.7054 99.7418ZM13.4021 106.335C13.0689 106.186 12.6954 106.152 12.2823 106.233C11.6915 106.349 11.268 106.65 11.0117 107.135C10.7554 107.62 10.6971 108.22 10.8368 108.931L11.3133 111.359L15.1782 110.599L14.7148 108.241C14.6235 107.776 14.4653 107.378 14.2394 107.046C14.0135 106.715 13.7341 106.478 13.4021 106.335ZM20.6826 104.664C20.2458 104.291 19.7139 104.165 19.0884 104.288C18.6351 104.377 18.2661 104.561 17.9807 104.837C17.6895 105.115 17.4929 105.466 17.3916 105.892C17.2847 106.318 17.2847 106.803 17.3916 107.348L17.9244 110.06L22.1251 109.235L21.6074 106.601C21.426 105.677 21.1182 105.032 20.6826 104.664Z" fill="black"/>
<path d="M115.726 70.2938C120.944 66.5206 127.28 66.3741 129.877 69.9661C132.475 73.5581 130.351 79.5287 125.134 83.3019C119.916 87.0751 113.58 87.2216 110.983 83.6296C108.385 80.0376 110.509 74.0669 115.726 70.2938Z" fill="black"/>
<path fill-rule="evenodd" clip-rule="evenodd" d="M108.572 65.6106C120.594 56.917 134.699 55.8976 140.077 63.3339L140.321 63.6857C145.285 71.1769 139.881 83.9826 128.047 92.5406L127.482 92.9407C115.775 101.131 102.272 102.107 96.8005 95.1581L96.5422 94.8164C91.1646 87.3801 96.5506 74.3044 108.572 65.6106ZM135.907 66.3494C134.649 64.6091 131.883 63.2167 127.187 63.556C122.585 63.8887 116.95 65.9033 111.588 69.7811C106.226 73.6587 102.549 78.3778 100.791 82.6445C98.9978 86.9981 99.4541 90.0604 100.713 91.8008C101.971 93.541 104.736 94.9335 109.432 94.5942C114.034 94.2615 119.668 92.2475 125.03 88.3701C130.392 84.4923 134.07 79.7717 135.828 75.5047C137.621 71.1517 137.166 68.0899 135.907 66.3494Z" fill="black"/>
<path fill-rule="evenodd" clip-rule="evenodd" d="M184.864 77.8257L185.243 83.5944L167.711 90.8197L167.406 86.1627L171.093 84.7333L170.686 78.5414L166.845 77.6095L166.539 72.9535L184.864 77.8257ZM174.316 83.4839L180.541 81.0714L180.532 80.9317L174.045 79.3566L174.316 83.4839Z" fill="black"/>
<path fill-rule="evenodd" clip-rule="evenodd" d="M10.7262 73.7366C12.1866 73.1588 13.8974 72.9967 15.8577 73.25C17.818 73.5034 19.4312 74.0951 20.6967 75.0252C21.9622 75.9553 22.8655 77.1101 23.4067 78.4891C23.9487 79.8624 24.1164 81.347 23.9103 82.9421C23.7034 84.5427 23.1609 85.9381 22.2819 87.1277C21.4028 88.3173 20.2354 89.2007 18.7808 89.7794C17.3211 90.3514 15.614 90.5114 13.6594 90.2588C11.6991 90.0055 10.0857 89.417 8.81941 88.4927C7.55395 87.5627 6.65042 86.4109 6.10841 85.0379C5.56643 83.6646 5.39796 82.1767 5.60482 80.5759C5.81095 78.9811 6.35107 77.5886 7.22417 76.3983C8.09817 75.2021 9.26578 74.3145 10.7262 73.7366ZM15.2888 77.6528C14.129 77.5029 13.1273 77.5413 12.2843 77.7684C11.4419 77.9897 10.7742 78.3809 10.283 78.9424C9.79246 79.4982 9.49223 80.206 9.38131 81.0644C9.27118 81.9168 9.38176 82.6772 9.71402 83.3452C10.0464 84.0132 10.5918 84.5647 11.3495 84.9987C12.1079 85.4269 13.0673 85.7153 14.2273 85.8652C15.3873 86.015 16.3885 85.9799 17.2308 85.7586C18.0737 85.5315 18.7409 85.1369 19.2321 84.5755C19.7234 84.0139 20.0246 83.3062 20.1348 82.4536C20.2457 81.5952 20.1342 80.835 19.8011 80.1728C19.4688 79.5049 18.9239 78.9565 18.1656 78.5283C17.408 78.0943 16.4487 77.8027 15.2888 77.6528Z" fill="black"/>
<path d="M2.15903 80.8915C2.68104 80.9589 3.10282 81.2086 3.42456 81.6393C3.74699 82.0643 3.87321 82.5464 3.80352 83.0858C3.73303 83.6309 3.48708 84.0741 3.06571 84.4147C2.64523 84.7492 2.17413 84.8831 1.65242 84.8157C1.1304 84.7483 0.71087 84.4989 0.394926 84.0689C0.0741226 83.6324 -0.0514449 83.1414 0.0189862 82.5963C0.088737 82.057 0.333928 81.6225 0.753779 81.2936C1.16859 80.9581 1.63713 80.8241 2.15903 80.8915Z" fill="black"/>
<path d="M2.86065 75.4625C3.38264 75.5299 3.80445 75.7796 4.12618 76.2103C4.44861 76.6353 4.57483 77.1174 4.50514 77.6568C4.43467 78.202 4.18873 78.645 3.76733 78.9857C3.34671 79.3204 2.87496 79.4542 2.35303 79.3867C1.83124 79.3192 1.4124 79.0698 1.09655 78.6399C0.775743 78.2034 0.650176 77.7123 0.720607 77.1673C0.790375 76.628 1.03557 76.1935 1.4554 75.8645C1.87019 75.5291 2.33878 75.395 2.86065 75.4625Z" fill="black"/>
<path d="M33.3329 52.4376L31.3829 56.3076L24.9356 53.0588L21.7491 59.3805L28.1964 62.6302L26.2413 66.5072L10.1985 58.4215L12.1526 54.5435L18.5918 57.7893L21.7783 51.4676L15.3391 48.2219L17.2891 44.3519L33.3329 52.4376Z" fill="black"/>
<path d="M165.947 56.3076C165.524 56.4921 165.188 56.7169 164.94 56.9831C164.7 57.2527 164.556 57.5512 164.508 57.8777C164.46 58.2042 164.508 58.5527 164.653 58.9231C164.804 59.3098 165.013 59.6047 165.281 59.8077C165.554 60.0086 165.881 60.1129 166.261 60.1213C166.643 60.1352 167.078 60.05 167.565 59.866L179.134 55.3436L180.692 59.3312L169.123 63.8536C168.037 64.2717 166.988 64.384 165.977 64.1893C164.97 63.9924 164.067 63.5287 163.267 62.7991C162.469 62.075 161.839 61.1213 161.377 59.9394C160.968 58.8937 160.779 57.8722 160.81 56.8745C160.843 55.8822 161.144 54.9824 161.714 54.1756C162.286 53.3743 163.172 52.7418 164.372 52.2788L165.947 56.3076Z" fill="black"/>
<path d="M161.839 28.1623L158.117 40.1331L158.209 40.2497L166.323 33.8206L169.014 37.2171L154.934 48.3757L152.645 45.4878L156.332 33.4436L156.26 33.3541L148.133 39.7944L145.437 36.3908L159.518 25.2332L161.839 28.1623Z" fill="black"/>
<path d="M37.8754 39.6939L43.0651 34.3161L45.6032 36.7647L37.3979 45.2676L24.4692 32.7932L27.4837 29.6681L37.8754 39.6939Z" fill="black"/>
<path d="M54.5042 18.2029L65.0315 23.6963L60.5052 26.2414L53.1442 22.28L52.7049 25.0422L55.0912 29.2861L51.3067 31.4151L42.5002 15.7553L46.2848 13.6263L50.009 20.2485L50.2151 20.1319L51.6675 10.5997L56.1256 8.09277L54.5042 18.2029Z" fill="black"/>
<path d="M148.9 16.5424L146.922 19.4614L140.147 14.8697L138.08 17.9205L144.326 22.1523L142.343 25.0794L136.096 20.8466L134.025 23.9044L140.801 28.4961L138.822 31.4151L128.452 24.3879L138.53 9.51511L148.9 16.5424Z" fill="black"/>
<path d="M79.9948 3.41663L72.0638 5.44008L72.9755 9.0105L80.2852 7.14588L81.1588 10.5706L73.849 12.4362L74.7617 16.0147L82.6927 13.9912L83.5642 17.4088L71.4265 20.5048L66.9846 3.09698L79.1233 0L79.9948 3.41663Z" fill="black"/>
<path fill-rule="evenodd" clip-rule="evenodd" d="M120.061 2.5773C121.346 2.97422 122.365 3.48761 123.119 4.11825C123.879 4.7507 124.375 5.46185 124.609 6.25026C124.848 7.04035 124.836 7.86555 124.57 8.72604C124.368 9.37978 124.05 9.92193 123.618 10.3514C123.187 10.7751 122.68 11.0804 122.096 11.2672C121.512 11.454 120.883 11.517 120.21 11.4561L120.159 11.624C120.841 11.8715 121.424 12.256 121.905 12.7779C122.392 13.3017 122.72 13.9241 122.889 14.6436C123.06 15.3574 123.019 16.1277 122.763 16.9545C122.479 17.8765 121.989 18.6287 121.295 19.2101C120.603 19.7858 119.748 20.146 118.731 20.2907C117.714 20.4298 116.571 20.3035 115.303 19.9118L107.6 17.5325L112.903 0.365888L120.061 2.5773ZM112.782 15.4698L115.347 16.2619C116.247 16.5397 116.961 16.5739 117.491 16.3645C118.027 16.1565 118.389 15.7472 118.577 15.1381C118.713 14.6968 118.727 14.2851 118.619 13.9028C118.512 13.5148 118.296 13.1751 117.97 12.8845C117.645 12.5884 117.217 12.3589 116.686 12.1949L114.045 11.3787L112.782 15.4698ZM114.872 8.70493L117.169 9.41459C117.621 9.55431 118.047 9.60348 118.445 9.56135C118.844 9.5192 119.185 9.38581 119.468 9.16128C119.758 8.93845 119.964 8.62572 120.089 8.22344C120.266 7.64789 120.202 7.13213 119.896 6.67646C119.59 6.22098 119.091 5.88625 118.398 5.67228L116.034 4.9415L114.872 8.70493Z" fill="black"/>
</svg>
