<svg width="295" height="53" viewBox="0 0 295 53" fill="none" xmlns="http://www.w3.org/2000/svg">
<mask id="path-1-inside-1_3631_833" fill="white">
<path d="M26.4882 0.631872C26.8218 -0.210624 28.0142 -0.210624 28.3478 0.631873L34.9988 17.4303C35.1414 17.7904 35.4792 18.0359 35.8658 18.0602L53.8973 19.1947C54.8017 19.2516 55.1701 20.3856 54.4719 20.9632L40.551 32.4797C40.2525 32.7266 40.1235 33.1237 40.2198 33.4989L44.7129 50.9985C44.9382 51.8762 43.9736 52.577 43.2085 52.0915L27.9538 42.4107C27.6268 42.2031 27.2093 42.2031 26.8822 42.4107L11.6275 52.0915C10.8625 52.577 9.89779 51.8762 10.1231 50.9985L14.6162 33.4989C14.7125 33.1237 14.5835 32.7266 14.285 32.4797L0.364086 20.9632C-0.334096 20.3856 0.0343781 19.2516 0.938719 19.1947L18.9702 18.0602C19.3568 18.0359 19.6946 17.7904 19.8372 17.4303L26.4882 0.631872Z"/>
<path d="M86.4882 0.631872C86.8218 -0.210624 88.0142 -0.210624 88.3478 0.631872L94.9988 17.4303C95.1414 17.7904 95.4792 18.0359 95.8658 18.0602L113.897 19.1947C114.802 19.2516 115.17 20.3856 114.472 20.9632L100.551 32.4797C100.253 32.7266 100.124 33.1237 100.22 33.4989L104.713 50.9985C104.938 51.8762 103.974 52.577 103.208 52.0915L87.9538 42.4107C87.6268 42.2031 87.2093 42.2031 86.8822 42.4107L71.6275 52.0915C70.8625 52.577 69.8978 51.8762 70.1231 50.9985L74.6162 33.4989C74.7125 33.1237 74.5835 32.7266 74.285 32.4797L60.3641 20.9632C59.6659 20.3856 60.0344 19.2516 60.9387 19.1947L78.9702 18.0602C79.3568 18.0359 79.6946 17.7904 79.8372 17.4303L86.4882 0.631872Z"/>
<path d="M146.488 0.631872C146.822 -0.210624 148.014 -0.210624 148.348 0.631872L154.999 17.4303C155.141 17.7904 155.479 18.0359 155.866 18.0602L173.897 19.1947C174.802 19.2516 175.17 20.3856 174.472 20.9632L160.551 32.4797C160.253 32.7266 160.124 33.1237 160.22 33.4989L164.713 50.9985C164.938 51.8762 163.974 52.577 163.208 52.0915L147.954 42.4107C147.627 42.2031 147.209 42.2031 146.882 42.4107L131.628 52.0915C130.862 52.577 129.898 51.8762 130.123 50.9985L134.616 33.4989C134.713 33.1237 134.584 32.7266 134.285 32.4797L120.364 20.9632C119.666 20.3856 120.034 19.2516 120.939 19.1947L138.97 18.0602C139.357 18.0359 139.695 17.7904 139.837 17.4303L146.488 0.631872Z"/>
<path d="M206.488 0.631872C206.822 -0.210624 208.014 -0.210624 208.348 0.631872L214.999 17.4303C215.141 17.7904 215.479 18.0359 215.866 18.0602L233.897 19.1947C234.802 19.2516 235.17 20.3856 234.472 20.9632L220.551 32.4797C220.253 32.7266 220.124 33.1237 220.22 33.4989L224.713 50.9985C224.938 51.8762 223.974 52.577 223.208 52.0915L207.954 42.4107C207.627 42.2031 207.209 42.2031 206.882 42.4107L191.628 52.0915C190.862 52.577 189.898 51.8762 190.123 50.9985L194.616 33.4989C194.713 33.1237 194.584 32.7266 194.285 32.4797L180.364 20.9632C179.666 20.3856 180.034 19.2516 180.939 19.1947L198.97 18.0602C199.357 18.0359 199.695 17.7904 199.837 17.4303L206.488 0.631872Z"/>
<path d="M266.488 0.631872C266.822 -0.210624 268.014 -0.210624 268.348 0.631872L274.999 17.4303C275.141 17.7904 275.479 18.0359 275.866 18.0602L293.897 19.1947C294.802 19.2516 295.17 20.3856 294.472 20.9632L280.551 32.4797C280.253 32.7266 280.124 33.1237 280.22 33.4989L284.713 50.9985C284.938 51.8762 283.974 52.577 283.208 52.0915L267.954 42.4107C267.627 42.2031 267.209 42.2031 266.882 42.4107L251.628 52.0915C250.862 52.577 249.898 51.8762 250.123 50.9985L254.616 33.4989C254.713 33.1237 254.584 32.7266 254.285 32.4797L240.364 20.9632C239.666 20.3856 240.034 19.2516 240.939 19.1947L258.97 18.0602C259.357 18.0359 259.695 17.7904 259.837 17.4303L266.488 0.631872Z"/>
</mask>
<path d="M26.4882 0.631872C26.8218 -0.210624 28.0142 -0.210624 28.3478 0.631873L34.9988 17.4303C35.1414 17.7904 35.4792 18.0359 35.8658 18.0602L53.8973 19.1947C54.8017 19.2516 55.1701 20.3856 54.4719 20.9632L40.551 32.4797C40.2525 32.7266 40.1235 33.1237 40.2198 33.4989L44.7129 50.9985C44.9382 51.8762 43.9736 52.577 43.2085 52.0915L27.9538 42.4107C27.6268 42.2031 27.2093 42.2031 26.8822 42.4107L11.6275 52.0915C10.8625 52.577 9.89779 51.8762 10.1231 50.9985L14.6162 33.4989C14.7125 33.1237 14.5835 32.7266 14.285 32.4797L0.364086 20.9632C-0.334096 20.3856 0.0343781 19.2516 0.938719 19.1947L18.9702 18.0602C19.3568 18.0359 19.6946 17.7904 19.8372 17.4303L26.4882 0.631872Z" fill="black"/>
<path d="M86.4882 0.631872C86.8218 -0.210624 88.0142 -0.210624 88.3478 0.631872L94.9988 17.4303C95.1414 17.7904 95.4792 18.0359 95.8658 18.0602L113.897 19.1947C114.802 19.2516 115.17 20.3856 114.472 20.9632L100.551 32.4797C100.253 32.7266 100.124 33.1237 100.22 33.4989L104.713 50.9985C104.938 51.8762 103.974 52.577 103.208 52.0915L87.9538 42.4107C87.6268 42.2031 87.2093 42.2031 86.8822 42.4107L71.6275 52.0915C70.8625 52.577 69.8978 51.8762 70.1231 50.9985L74.6162 33.4989C74.7125 33.1237 74.5835 32.7266 74.285 32.4797L60.3641 20.9632C59.6659 20.3856 60.0344 19.2516 60.9387 19.1947L78.9702 18.0602C79.3568 18.0359 79.6946 17.7904 79.8372 17.4303L86.4882 0.631872Z" fill="white"/>
<path d="M146.488 0.631872C146.822 -0.210624 148.014 -0.210624 148.348 0.631872L154.999 17.4303C155.141 17.7904 155.479 18.0359 155.866 18.0602L173.897 19.1947C174.802 19.2516 175.17 20.3856 174.472 20.9632L160.551 32.4797C160.253 32.7266 160.124 33.1237 160.22 33.4989L164.713 50.9985C164.938 51.8762 163.974 52.577 163.208 52.0915L147.954 42.4107C147.627 42.2031 147.209 42.2031 146.882 42.4107L131.628 52.0915C130.862 52.577 129.898 51.8762 130.123 50.9985L134.616 33.4989C134.713 33.1237 134.584 32.7266 134.285 32.4797L120.364 20.9632C119.666 20.3856 120.034 19.2516 120.939 19.1947L138.97 18.0602C139.357 18.0359 139.695 17.7904 139.837 17.4303L146.488 0.631872Z" fill="white"/>
<path d="M206.488 0.631872C206.822 -0.210624 208.014 -0.210624 208.348 0.631872L214.999 17.4303C215.141 17.7904 215.479 18.0359 215.866 18.0602L233.897 19.1947C234.802 19.2516 235.17 20.3856 234.472 20.9632L220.551 32.4797C220.253 32.7266 220.124 33.1237 220.22 33.4989L224.713 50.9985C224.938 51.8762 223.974 52.577 223.208 52.0915L207.954 42.4107C207.627 42.2031 207.209 42.2031 206.882 42.4107L191.628 52.0915C190.862 52.577 189.898 51.8762 190.123 50.9985L194.616 33.4989C194.713 33.1237 194.584 32.7266 194.285 32.4797L180.364 20.9632C179.666 20.3856 180.034 19.2516 180.939 19.1947L198.97 18.0602C199.357 18.0359 199.695 17.7904 199.837 17.4303L206.488 0.631872Z" fill="white"/>
<path d="M266.488 0.631872C266.822 -0.210624 268.014 -0.210624 268.348 0.631872L274.999 17.4303C275.141 17.7904 275.479 18.0359 275.866 18.0602L293.897 19.1947C294.802 19.2516 295.17 20.3856 294.472 20.9632L280.551 32.4797C280.253 32.7266 280.124 33.1237 280.22 33.4989L284.713 50.9985C284.938 51.8762 283.974 52.577 283.208 52.0915L267.954 42.4107C267.627 42.2031 267.209 42.2031 266.882 42.4107L251.628 52.0915C250.862 52.577 249.898 51.8762 250.123 50.9985L254.616 33.4989C254.713 33.1237 254.584 32.7266 254.285 32.4797L240.364 20.9632C239.666 20.3856 240.034 19.2516 240.939 19.1947L258.97 18.0602C259.357 18.0359 259.695 17.7904 259.837 17.4303L266.488 0.631872Z" fill="white"/>
<path d="M26.4882 0.631872C26.8218 -0.210624 28.0142 -0.210624 28.3478 0.631873L34.9988 17.4303C35.1414 17.7904 35.4792 18.0359 35.8658 18.0602L53.8973 19.1947C54.8017 19.2516 55.1701 20.3856 54.4719 20.9632L40.551 32.4797C40.2525 32.7266 40.1235 33.1237 40.2198 33.4989L44.7129 50.9985C44.9382 51.8762 43.9736 52.577 43.2085 52.0915L27.9538 42.4107C27.6268 42.2031 27.2093 42.2031 26.8822 42.4107L11.6275 52.0915C10.8625 52.577 9.89779 51.8762 10.1231 50.9985L14.6162 33.4989C14.7125 33.1237 14.5835 32.7266 14.285 32.4797L0.364086 20.9632C-0.334096 20.3856 0.0343781 19.2516 0.938719 19.1947L18.9702 18.0602C19.3568 18.0359 19.6946 17.7904 19.8372 17.4303L26.4882 0.631872Z" stroke="black" stroke-width="4" stroke-linejoin="round" mask="url(#path-1-inside-1_3631_833)"/>
<path d="M86.4882 0.631872C86.8218 -0.210624 88.0142 -0.210624 88.3478 0.631872L94.9988 17.4303C95.1414 17.7904 95.4792 18.0359 95.8658 18.0602L113.897 19.1947C114.802 19.2516 115.17 20.3856 114.472 20.9632L100.551 32.4797C100.253 32.7266 100.124 33.1237 100.22 33.4989L104.713 50.9985C104.938 51.8762 103.974 52.577 103.208 52.0915L87.9538 42.4107C87.6268 42.2031 87.2093 42.2031 86.8822 42.4107L71.6275 52.0915C70.8625 52.577 69.8978 51.8762 70.1231 50.9985L74.6162 33.4989C74.7125 33.1237 74.5835 32.7266 74.285 32.4797L60.3641 20.9632C59.6659 20.3856 60.0344 19.2516 60.9387 19.1947L78.9702 18.0602C79.3568 18.0359 79.6946 17.7904 79.8372 17.4303L86.4882 0.631872Z" stroke="black" stroke-width="4" stroke-linejoin="round" mask="url(#path-1-inside-1_3631_833)"/>
<path d="M146.488 0.631872C146.822 -0.210624 148.014 -0.210624 148.348 0.631872L154.999 17.4303C155.141 17.7904 155.479 18.0359 155.866 18.0602L173.897 19.1947C174.802 19.2516 175.17 20.3856 174.472 20.9632L160.551 32.4797C160.253 32.7266 160.124 33.1237 160.22 33.4989L164.713 50.9985C164.938 51.8762 163.974 52.577 163.208 52.0915L147.954 42.4107C147.627 42.2031 147.209 42.2031 146.882 42.4107L131.628 52.0915C130.862 52.577 129.898 51.8762 130.123 50.9985L134.616 33.4989C134.713 33.1237 134.584 32.7266 134.285 32.4797L120.364 20.9632C119.666 20.3856 120.034 19.2516 120.939 19.1947L138.97 18.0602C139.357 18.0359 139.695 17.7904 139.837 17.4303L146.488 0.631872Z" stroke="black" stroke-width="4" stroke-linejoin="round" mask="url(#path-1-inside-1_3631_833)"/>
<path d="M206.488 0.631872C206.822 -0.210624 208.014 -0.210624 208.348 0.631872L214.999 17.4303C215.141 17.7904 215.479 18.0359 215.866 18.0602L233.897 19.1947C234.802 19.2516 235.17 20.3856 234.472 20.9632L220.551 32.4797C220.253 32.7266 220.124 33.1237 220.22 33.4989L224.713 50.9985C224.938 51.8762 223.974 52.577 223.208 52.0915L207.954 42.4107C207.627 42.2031 207.209 42.2031 206.882 42.4107L191.628 52.0915C190.862 52.577 189.898 51.8762 190.123 50.9985L194.616 33.4989C194.713 33.1237 194.584 32.7266 194.285 32.4797L180.364 20.9632C179.666 20.3856 180.034 19.2516 180.939 19.1947L198.97 18.0602C199.357 18.0359 199.695 17.7904 199.837 17.4303L206.488 0.631872Z" stroke="black" stroke-width="4" stroke-linejoin="round" mask="url(#path-1-inside-1_3631_833)"/>
<path d="M266.488 0.631872C266.822 -0.210624 268.014 -0.210624 268.348 0.631872L274.999 17.4303C275.141 17.7904 275.479 18.0359 275.866 18.0602L293.897 19.1947C294.802 19.2516 295.17 20.3856 294.472 20.9632L280.551 32.4797C280.253 32.7266 280.124 33.1237 280.22 33.4989L284.713 50.9985C284.938 51.8762 283.974 52.577 283.208 52.0915L267.954 42.4107C267.627 42.2031 267.209 42.2031 266.882 42.4107L251.628 52.0915C250.862 52.577 249.898 51.8762 250.123 50.9985L254.616 33.4989C254.713 33.1237 254.584 32.7266 254.285 32.4797L240.364 20.9632C239.666 20.3856 240.034 19.2516 240.939 19.1947L258.97 18.0602C259.357 18.0359 259.695 17.7904 259.837 17.4303L266.488 0.631872Z" stroke="black" stroke-width="4" stroke-linejoin="round" mask="url(#path-1-inside-1_3631_833)"/>
</svg>
